
<svg width="32" height="32" viewBox="0 0 32 32" fill="none" xmlns="http://www.w3.org/2000/svg">
  <rect width="32" height="32" rx="16" fill="#4b9074"/>
  <path d="M18.494 20.758C18.172 20.758 17.899 20.674 17.675 20.506C17.451 20.338 17.285 20.121 17.178 19.856C17.073 19.589 17.02 19.301 17.02 18.994C17.02 18.684 17.073 18.397 17.178 18.132C17.285 17.864 17.451 17.647 17.675 17.479C17.899 17.311 18.172 17.227 18.494 17.227C18.819 17.227 19.093 17.311 19.315 17.479C19.539 17.647 19.705 17.864 19.812 18.132C19.919 18.397 19.972 18.684 19.972 18.994C19.972 19.301 19.919 19.589 19.812 19.856C19.705 20.121 19.539 20.338 19.315 20.506C19.093 20.674 18.819 20.758 18.494 20.758ZM10.316 23V10.746L12.622 10.242V16.834H12.685C12.782 16.688 12.912 16.522 13.074 16.336C13.238 16.148 13.449 15.978 13.707 15.827C13.967 15.673 14.29 15.596 14.676 15.596C15.213 15.596 15.687 15.736 16.1 16.016C16.513 16.294 16.835 16.688 17.068 17.197C17.301 17.704 17.417 18.305 17.417 19.001C17.417 19.697 17.301 20.3 17.068 20.809C16.835 21.316 16.511 21.708 16.096 21.986C15.683 22.262 15.211 22.4 14.679 22.4C14.297 22.4 13.976 22.325 13.714 22.176C13.454 22.024 13.241 21.853 13.074 21.663C12.91 21.47 12.782 21.299 12.689 21.15H12.596V23H10.316ZM12.53 18.994C12.53 19.364 12.587 19.685 12.702 19.954C12.817 20.223 12.983 20.433 13.201 20.584C13.419 20.732 13.682 20.807 13.988 20.807C14.301 20.807 14.567 20.732 14.784 20.584C15.002 20.433 15.169 20.223 15.284 19.954C15.399 19.685 15.456 19.364 15.456 18.994C15.456 18.624 15.399 18.305 15.284 18.038C15.169 17.769 15.002 17.559 14.784 17.408C14.567 17.257 14.301 17.182 13.988 17.182C13.682 17.182 13.419 17.257 13.201 17.408C12.983 17.559 12.817 17.769 12.702 18.038C12.587 18.305 12.53 18.624 12.53 18.994ZM24.166 15.596C24.736 15.596 25.231 15.724 25.651 15.98C26.071 16.234 26.397 16.605 26.629 17.094C26.862 17.579 26.978 18.167 26.978 18.856V22.26H24.697V19.15C24.697 18.688 24.594 18.331 24.387 18.078C24.18 17.825 23.887 17.698 23.509 17.698C23.243 17.698 23.008 17.762 22.804 17.89C22.602 18.014 22.445 18.196 22.334 18.435C22.223 18.674 22.167 18.967 22.167 19.315V22.26H19.887V15.736H22.077V16.771H22.134C22.293 16.447 22.547 16.194 22.897 16.012C23.249 15.828 23.67 15.736 24.166 15.736V15.596Z" fill="white"/>
</svg>
